<?xml version="1.0" encoding="utf-8"?>
<!-- Generator: Adobe Illustrator 24.0.2, SVG Export Plug-In . SVG Version: 6.00 Build 0)  -->
<svg version="1.1" id="Слой_1" xmlns="http://www.w3.org/2000/svg" xmlns:xlink="http://www.w3.org/1999/xlink" x="0px" y="0px"
	 viewBox="0 0 50 50" style="enable-background:new 0 0 50 50;" xml:space="preserve">
<style type="text/css">
	.st0{fill:#FFFFFF;}
</style>
<g>
	<path id="ICQ" class="st0" d="M46.06,28.34l-0.32-0.49c-0.5-0.74-1-1.47-1.75-1.97c-0.63-0.43-1.38-0.74-2.06-1.04
		c0.13-0.05,3.13-1.22,3.89-3.87c0.53-1.84-0.07-3.46-0.07-3.46c-0.04-0.1-0.07-0.17-0.09-0.23c-0.2-0.39-0.58-1-1.25-1.53
		c-0.76-0.59-1.5-0.79-2.22-0.93c-0.94-0.18-1.98-0.18-2.92-0.12l-2.05,0.43l0.7-1.53c0.62-1.97,0.44-3.87-0.62-5.66l-0.19-0.31
		c-0.94-1.53-2.32-2.45-4.2-2.94c-1.94-0.49-3.59-0.31-5.34,0.61s-3.41,2.33-3.41,4.18v0.12l-0.22,0.43l-0.33-0.43l-0.67-1.1
		c-1-1.54-2.27-2.46-3.84-2.89c-1.38-0.31-2.51-0.18-3.7,0.43c-1.31,0.8-2.07,2.03-2.38,3.75c-0.32,1.78,0,3.5,0.94,5.22l0.44,0.62
		l-1.5-0.49c-1.88-0.43-3.63-0.18-5.38,0.74c-1.82,0.92-2.94,2.21-3.69,3.99c-0.69,1.72-0.62,3.38,0.25,4.91
		c0.38,0.68,0.94,1.23,1.44,1.6c0.75,0.74,1.69,1.16,2.82,1.35l0.44,0.12l-0.94,0.8c-0.88,0.74-1.38,1.66-1.69,2.58
		c-0.31,1.11-0.19,2.21,0.44,3.26c0.32,0.49,0.63,0.92,1.13,1.23c0.5,0.43,1.12,0.73,1.88,0.8c1.38,0.31,2.82,0.31,4.38-0.19
		l-1.13,1.84l-0.31,0.8c-0.63,1.96-0.44,3.69,0.5,5.46c0.44,0.68,0.94,1.29,1.44,1.85c0.75,0.68,1.69,1.11,2.82,1.41
		c1.88,0.49,3.75,0.43,5.57-0.49c1.75-0.92,2.88-2.4,3.44-4.24l0.06-0.37c1.19,1.29,2.32,2.15,3.57,2.45
		c1.25,0.37,2.5,0.31,3.63-0.43c1.06-0.61,1.81-1.66,2.19-2.95c0.31-1.35,0.31-2.7,0-4.23c0.62,0.43,1.25,0.73,2,0.92
		c2,0.62,3.76,0.55,5.51-0.37c1.69-0.92,2.82-2.4,3.38-4.3C47.13,31.85,47.01,30.07,46.06,28.34z M36.99,18.09l0.75-0.31
		c1.13-0.49,2.19-0.61,3.32-0.49c1.06,0.12,1.81,0.61,2.19,1.35l0.25,0.8l-0.12,0.62c-0.44,1.11-1.38,1.97-2.94,2.64
		c-0.63,0.31-1.31,0.43-2.06,0.55l-7.7,0.92l-0.13-0.43l-0.12-0.19l0.25-0.31L36.99,18.09z M26.35,10.35
		c0.31-1.23,1.19-2.15,2.32-2.77c1.12-0.61,2.38-0.74,3.57-0.31c1.32,0.31,2.25,0.98,2.82,2.03c0.31,0.61,0.5,1.35,0.5,2.15
		l-0.19,1.35c-0.25,0.68-0.56,1.29-0.94,1.85l-5.63,6.76c-0.56-0.43-1.19-0.74-1.82-1.04l-0.63-6.94l-0.06-2.46L26.35,10.35z
		 M15.65,10.53c0.06-1.11,0.5-1.84,1.25-2.27c0.38-0.31,0.94-0.31,1.44-0.06c1.13,0.31,2.07,1.11,2.81,2.64
		c0.32,0.61,0.63,1.23,0.75,1.97l1.25,7.25l-0.94,0.31l-5.57-5.96l-0.31-0.61C15.83,12.68,15.52,11.64,15.65,10.53z M6.45,23.55
		c-0.5-0.92-0.5-1.84-0.12-2.76c0.44-1.17,1.25-2.09,2.44-2.58c1.13-0.61,2.25-0.8,3.51-0.49l1.69,0.68l5.51,3.93
		c-0.5,0.62-0.81,1.23-1,1.85l-9.01,1.11l-0.62-0.12C7.7,24.97,6.95,24.48,6.45,23.55z M24.16,41.67l-0.22,0.62
		c-0.44,1.11-1.27,2.03-2.4,2.52c-1.13,0.62-2.36,0.74-3.48,0.44c-1.25-0.31-2.21-1.04-2.71-2.03c-0.31-0.61-0.57-1.35-0.57-2.09
		l0.3-1.41c0.13-0.62,0.44-1.23,0.94-1.72l5.25-6.14c0.63,0.31,1.41,0.62,2.1,0.68c0.12,2.09,0.78,4.3,0.78,6.7L24.16,41.67
		L24.16,41.67z M21.78,29.39c-0.81-0.74-1.25-1.78-1.25-2.89s0.44-2.03,1.25-2.89c0.75-0.68,1.76-1.11,2.94-1.11
		c1.13,0,2.19,0.43,2.88,1.11c0.87,0.86,1.25,1.78,1.25,2.89s-0.38,2.15-1.25,2.89c-0.81,0.8-1.76,1.22-2.88,1.22
		C23.53,30.62,22.53,30.19,21.78,29.39z M33.36,40.14c-0.12,1.11-0.5,1.91-1.25,2.21c-0.44,0.3-0.94,0.3-1.44,0.24
		c-1.19-0.31-2.13-1.23-2.81-2.7l-0.75-2.03l-0.94-5.34l1.06-0.37l0.81-0.43l2.63,2.64l1.63,1.97l0.31,0.61
		C33.17,37.99,33.49,38.97,33.36,40.14z M44.13,32.95c-0.32,1.23-1.06,2.15-2.13,2.64c-1.12,0.62-2.25,0.74-3.5,0.31
		c-0.75-0.18-1.25-0.49-1.69-0.98l-6.58-5.34l0.44-0.92l0.19-0.74l7.07-0.61l2.5-0.06l0.63,0.06c0.93,0.31,1.81,0.86,2.31,1.78
		c0.63,0.68,0.94,1.6,0.94,2.65L44.13,32.95z"/>
</g>
</svg>
