<?xml version="1.0" encoding="utf-8"?>
<!-- Generator: Adobe Illustrator 24.0.2, SVG Export Plug-In . SVG Version: 6.00 Build 0)  -->
<svg version="1.1" id="Слой_1" xmlns="http://www.w3.org/2000/svg" xmlns:xlink="http://www.w3.org/1999/xlink" x="0px" y="0px"
	 viewBox="0 0 50 50" style="enable-background:new 0 0 50 50;" xml:space="preserve">
<style type="text/css">
	.st0{fill:#FFFFFF;}
</style>
<g transform="translate(0.000000,512.000000) scale(0.100000,-0.100000)">
	<path class="st0" d="M230.14,5091.44c-40.4-4.04-79.11-19.35-113.24-44.76c-12.97-9.57-34.77-31.37-44.34-44.34
		C38,4955.98,22.27,4900.9,27.69,4845.4c5.21-53.48,27.43-100.37,65.71-138.76c39.45-39.45,86.97-61.35,142.8-66.03
		c27.96-2.23,60.29,1.7,88.04,10.85c14.67,4.78,37.21,15.31,48.7,22.65l7.76,5l-4.68,6.7c-2.55,3.62-7.87,11.38-11.91,17.23
		c-3.93,5.85-7.55,11.06-8.08,11.59c-0.43,0.43-4.25-1.28-8.61-3.93c-19.56-11.91-39.34-19.25-63.58-23.71
		c-12.65-2.34-44.23-2.66-57.42-0.64c-28.18,4.47-55.5,15.52-78.68,31.9c-12.97,9.14-33.6,29.77-42.74,42.74
		c-16.37,23.18-27.43,50.5-31.9,78.68c-1.81,11.59-1.81,41.57,0,53.16c4.47,28.18,15.52,55.5,31.9,78.68
		c9.14,12.97,29.77,33.6,42.74,42.74c18.18,12.76,38.17,22.12,59.76,27.86c15.63,4.15,26.69,5.42,45.51,5.42s29.88-1.28,45.51-5.42
		c32.43-8.61,58.69-23.71,82.62-47.74c24.03-23.92,39.13-50.19,47.74-82.62c4.47-17.01,5.42-26.37,5.42-52.95
		c0-23.18-0.21-25.52-2.45-32.85c-6.27-19.88-17.12-28.07-37-27.96c-7.76,0.11-10.74,0.53-14.78,2.45
		c-7.02,3.3-16.91,12.76-20.1,19.25c-2.66,5.32-2.76,6.17-2.76,26.26c0,11.48-0.53,25.41-1.06,30.94
		c-5.21,48.91-43.81,87.4-92.72,92.5c-56.67,5.85-107.6-35.83-113.56-92.82c-5.1-49.02,25.73-95.06,73.37-109.62
		c33.28-10.1,71.34-2.02,97.08,20.63l4.78,4.25l3.93-5.32c8.61-11.8,25.73-24.35,40.09-29.56c6.59-2.34,9.99-2.87,22.33-3.19
		c18.82-0.53,28.5,1.28,42.32,7.97c8.51,4.15,11.48,6.27,19.25,14.04c7.66,7.87,9.89,10.95,14.57,20.41
		c9.04,18.29,11.8,32.75,11.91,61.67c0.11,57.1-14.04,101.65-46.04,144.5c-9.57,12.97-31.37,34.77-44.34,44.34
		C342.31,5081.55,286.81,5097.18,230.14,5091.44z M271.18,4922.7c17.54-5.53,32.85-20.95,38.49-38.92c3.19-10.31,3.19-24.77,0-35.09
		c-5.64-18.18-20.95-33.49-39.13-39.13c-10.31-3.19-24.77-3.19-35.09,0c-28.81,9.04-46.68,39.23-40.51,68.37
		C202.28,4912.81,237.15,4933.22,271.18,4922.7z"/>
</g>
</svg>
