<?xml version="1.0" encoding="utf-8"?>
<!-- Generator: Adobe Illustrator 24.0.2, SVG Export Plug-In . SVG Version: 6.00 Build 0)  -->
<svg version="1.1" id="Слой_1" xmlns="http://www.w3.org/2000/svg" xmlns:xlink="http://www.w3.org/1999/xlink" x="0px" y="0px"
	 viewBox="0 0 50 50" style="enable-background:new 0 0 50 50;" xml:space="preserve">
<style type="text/css">
	.st0{fill:#FFFFFF;}
</style>
<g transform="translate(0.000000,980.000000) scale(0.100000,-0.100000)">
	<path class="st0" d="M380.72,9779.26c-5.82-1.59-11.01-4.9-14.75-9.42c-1.83-2.21-66.71-109.96-69.21-115.01
		c-4.57-8.99-4.23-19.32,0.91-28.07c2.98-5.05,15.04-15.96,16.24-14.66c0.19,0.24,21.92,36.48,48.3,80.55
		c27.78,46.47,47.77,80.36,47.53,80.69c-0.62,1.01-8.55,4.37-13.12,5.53C391.38,9780.22,384.9,9780.37,380.72,9779.26z"/>
	<path class="st0" d="M373.27,9686.99l-48.01-80.12l1.44-1.15c1.39-1.11,3.89-2.64,11.68-7.16c6.97-4.04,11.68-9.61,14.37-17.11
		c1.2-3.17,1.3-4.13,1.3-10.24c-0.05-11.01-0.82-12.54-15.72-31.14c-21.68-26.96-30.66-36.91-57.82-64.02
		c-16.97-17.01-35.28-34.03-38.88-36.24c-7.88-4.76-17.3-5.82-26.72-2.93c-6.54,1.97-10.81,5.72-18.17,16.1
		c-2.4,3.46-4.9,6.87-5.53,7.64l-1.11,1.39l-76.42-53.49c-42.01-29.41-76.46-53.54-76.56-53.64c-0.29-0.24,3.12-5.82,6.06-9.71
		c3.89-5.24,13.55-14.71,18.84-18.41c15.28-10.77,33.83-16.34,56.76-17.11c11.53-0.34,21.15,0.38,26,2.02
		c22.3,7.59,78.29,48.45,129.14,94.3c19.9,17.93,46.96,44.41,62.62,61.23c41.96,45.03,83.48,99.15,111.31,145.1
		c13.26,21.96,22.44,40.85,24.46,50.46c1.59,7.79,1.87,20.67,0.62,31.48c-3.46,29.94-20.76,55.89-46.86,70.41
		c-2.35,1.3-4.47,2.4-4.61,2.4C421.37,9767.05,399.65,9731.01,373.27,9686.99z"/>
	<path class="st0" d="M145.7,9490.95c-3.51-0.87-6.73-2.26-9.52-4.18c-3.17-2.16-103.28-75.22-105.45-76.95
		c-4.18-3.36-8.55-10.62-10.04-16.68c-0.87-3.65-0.77-11.1,0.24-14.85c0.48-1.73,1.44-4.33,2.21-5.77c1.68-3.32,5.62-8.94,6.25-8.94
		c0.29,0,4.66,3.03,9.71,6.78c5.09,3.7,38.69,28.26,74.64,54.5s65.84,48.11,66.42,48.54l1.11,0.87l-2.79,3.27
		c-5.58,6.63-13.02,11.63-20.04,13.41C154.97,9491.81,149.3,9491.81,145.7,9490.95z"/>
</g>
</svg>
