<?xml version="1.0" encoding="utf-8"?>
<!-- Generator: Adobe Illustrator 24.0.2, SVG Export Plug-In . SVG Version: 6.00 Build 0)  -->
<svg version="1.1" id="Слой_1" xmlns="http://www.w3.org/2000/svg" xmlns:xlink="http://www.w3.org/1999/xlink" x="0px" y="0px"
	 viewBox="0 0 50 50" style="enable-background:new 0 0 50 50;" xml:space="preserve">
<style type="text/css">
	.st0{fill:#FFFFFF;}
</style>
<g id="XMLID_2143_">
	<path id="XMLID_2144_" class="st0" d="M4.06,24.79c0,11.55,9.36,20.91,20.91,20.91c1.34,0,2.65-0.13,3.92-0.37
		c1.84,1.11,4,1.75,6.3,1.75c6.74,0,12.21-5.47,12.21-12.21c0-2.36-0.67-4.57-1.84-6.44c0.21-1.18,0.32-2.4,0.32-3.65
		c0-11.55-9.37-20.91-20.91-20.91c-1.32,0-2.6,0.13-3.85,0.36c-1.85-1.13-4.02-1.77-6.34-1.77c-6.74,0-12.21,5.46-12.21,12.21
		c0,2.35,0.67,4.54,1.82,6.41C4.18,22.28,4.06,23.52,4.06,24.79z M25.2,9.93c6.75,0.4,10.7,3.36,11.08,6.13
		c0.19,1.81-1.02,3.22-3.11,3.22c-3.05,0-3.36-4.07-8.62-4.07c-2.37,0-4.37,0.99-4.37,3.12c0,4.47,16.83,1.87,16.83,11.71
		c0,5.67-4.54,9.38-11.31,9.38c-5.96,0-11.94-2.7-11.91-7.35c0.01-1.4,1.06-2.69,2.45-2.69c3.51,0,3.48,5.21,9.06,5.21
		c3.92,0,5.26-2.14,5.26-3.63c0-5.38-16.93-2.08-16.93-12.2C13.63,13.29,18.13,9.51,25.2,9.93z"/>
</g>
</svg>
